<svg xmlns="http://www.w3.org/2000/svg" viewBox="0 0 640 640" role="img" aria-label="Chocolate truffle ice cream bar with wrapper illustration">
  <ellipse cx="320" cy="548" rx="220" ry="24" fill="#2A1A12" opacity="0.10"/>
  <g transform="rotate(-10 200 330)">
    <polygon points="52,258 78,278 52,298 78,318 52,338 78,358 52,378" fill="#241209"/>
    <polygon points="348,258 322,278 348,298 322,318 348,338 322,358 348,378" fill="#241209"/>
    <rect x="70" y="250" width="270" height="140" rx="20" fill="#3A1F14"/>
    <rect x="70" y="250" width="270" height="140" rx="20" fill="none" stroke="#1D0D06" stroke-width="4"/>
    <rect x="150" y="250" width="110" height="140" fill="#C9962E"/>
    <rect x="150" y="250" width="110" height="140" fill="none" stroke="#8A5A1F" stroke-width="3"/>
    <circle cx="205" cy="320" r="34" fill="none" stroke="#3A1F14" stroke-width="6"/>
    <path d="M186 320 h38 M205 301 v38" stroke="#3A1F14" stroke-width="6"/>
    <rect x="92" y="272" width="34" height="34" rx="4" fill="#C9962E" opacity="0.45" transform="rotate(18 109 289)"/>
    <rect x="286" y="334" width="30" height="30" rx="4" fill="#C9962E" opacity="0.45" transform="rotate(18 301 349)"/>
    <rect x="286" y="272" width="26" height="26" rx="4" fill="#C9962E" opacity="0.35" transform="rotate(18 299 285)"/>
  </g>
  <g transform="rotate(12 480 320)">
    <rect x="458" y="430" width="44" height="110" rx="14" fill="#D9B98A"/>
    <rect x="400" y="130" width="160" height="320" rx="62" fill="#2E1A10"/>
    <rect x="418" y="150" width="52" height="280" rx="26" fill="#4A2C1A" opacity="0.85"/>
    <circle cx="462" cy="200" r="17" fill="#6B4226"/>
    <circle cx="492" cy="260" r="13" fill="#6B4226"/>
    <circle cx="452" cy="320" r="15" fill="#6B4226"/>
    <circle cx="488" cy="375" r="12" fill="#6B4226"/>
    <circle cx="466" cy="230" r="6" fill="#8A5A33"/>
    <circle cx="444" cy="290" r="6" fill="#8A5A33"/>
    <circle cx="482" cy="345" r="6" fill="#8A5A33"/>
    <path d="M420 420 q60 22 120 0" stroke="#1D0D06" stroke-width="6" fill="none" stroke-linecap="round"/>
  </g>
</svg>
